<?xml version="1.0" encoding="iso-8859-1"?>
<!-- Uploaded to: SVG Repo, www.svgrepo.com, Generator: SVG Repo Mixer Tools -->
<svg height="800px" width="800px" version="1.1" id="Layer_1" xmlns="http://www.w3.org/2000/svg" xmlns:xlink="http://www.w3.org/1999/xlink" 
	 viewBox="0 0 512 512" xml:space="preserve">
<path style="fill:#981700;" d="M434.268,317.81l-55.631-73.232c-18.002-16.087-40.735-26.268-70.38-26.268
	c-7.206,0-14.353,0-21.523,0s-34.659,0-41.865,0c-29.644,0-52.378,10.181-70.38,26.268l-7.533,9.917l-39.513,76.149v154.818h305.362
	v-50.764l0,0l53.537-39.989C482.458,385.171,456.193,348.31,434.268,317.81z"/>
<path style="fill:#7A1700;" d="M434.268,317.81l-55.631-73.232c-18.002-16.087-40.735-26.268-70.38-26.268
	c-7.206,0-14.353,0-21.523,0c-1.78,0-4.812,0-8.474,0v267.15h154.545v-50.764l0,0l53.537-39.989
	C482.458,385.171,456.193,348.31,434.268,317.81z"/>
<path style="fill:#C4C2BF;" d="M124.616,377.069V238.55l154.091,32.804l154.099-32.804v196.148H124.616V377.069z"/>
<path style="fill:#DDDAD4;" d="M278.707,271.352l154.099-32.804v196.148H278.261V271.258L278.707,271.352z"/>
<path style="fill:#CF8F3D;" d="M278.707,32.068c33.783,0,61.17,27.282,61.17,60.934c0,33.654-27.386,60.935-61.17,60.935
	s-61.164-27.282-61.164-60.935S244.924,32.068,278.707,32.068L278.707,32.068z"/>
<path style="fill:#B76700;" d="M339.877,93.001c0,33.654-27.386,60.935-61.17,60.935c-24.859,0-46.236-14.78-55.804-35.994
	c7.603,3.378,16.018,5.271,24.881,5.271c33.783,0,61.17-27.282,61.17-60.936c0-8.889-1.927-17.325-5.36-24.939
	C324.97,46.84,339.877,68.179,339.877,93.001z"/>
<path style="fill:#415E5C;" d="M155.933,369.845v55.044c0,30.275-24.862,55.043-55.251,55.043h-0.006
	c-30.389,0-55.254-24.769-55.254-55.043v-23.533H24.671c-3.783,0-6.862,3.079-6.862,6.864v15.711c0,4.885-3.987,8.846-8.904,8.846
	S0,428.817,0,423.931V408.22c0-13.541,11.067-24.558,24.671-24.558h20.752v-13.817h110.511V369.845z"/>
<path style="fill:#5B7F81;" d="M95.88,424.889v-55.044h60.053v55.044c0,21.232-12.237,39.743-30.025,48.915
	C108.119,464.632,95.88,446.122,95.88,424.889z"/>
<path style="fill:#CF8F3D;" d="M413.946,370.35h18.859v48.761h-18.859c-13.466,0-24.381-10.916-24.381-24.381l0,0
	C389.565,381.265,400.481,370.35,413.946,370.35z"/>
<path d="M503.096,471.082H441.71V439.16l49.962-37.318c3.248-2.426,4.448-6.739,2.917-10.494
	c-3.812-9.36-23.058-36.953-52.88-78.443v-74.357c0-2.687-1.213-5.23-3.302-6.921c-2.088-1.692-4.828-2.351-7.456-1.788
	l-45.044,9.588l-0.179-0.236c-0.345-0.454-0.731-0.874-1.156-1.253c-21.188-18.934-46.864-28.534-76.315-28.534H244.87
	c-29.451,0-55.126,9.6-76.315,28.534c-0.249,0.223-0.481,0.462-0.702,0.711l-41.383-8.81c-2.629-0.562-5.369,0.098-7.456,1.788
	c-2.089,1.691-3.302,4.234-3.302,6.921V360.94H45.422c-4.917,0-8.904,3.987-8.904,8.904v13.817H24.671
	C11.067,383.663,0,394.678,0,408.22v15.711c0,4.885,3.987,8.846,8.904,8.846s8.904-3.961,8.904-8.846V408.22
	c0-3.785,3.079-6.864,6.862-6.864h11.847v23.533c0,18.149,7.638,34.543,19.861,46.194H36.518c-4.917,0-8.904,3.961-8.904,8.846
	s3.987,8.846,8.904,8.846h61.752c0.8,0.03,1.601,0.061,2.408,0.061h0.006c0.807,0,1.607-0.031,2.408-0.061h23.368
	c0.324,0.036,0.652,0.058,0.986,0.058h305.362c0.334,0,0.662-0.022,0.986-0.058h69.303c4.917,0,8.904-3.961,8.904-8.846
	S508.013,471.082,503.096,471.082z M162.028,443.601H423.9v27.423H145.036C152.846,463.561,158.779,454.164,162.028,443.601z
	 M423.901,410.207h-9.955c-8.534,0-15.476-6.943-15.476-15.477c0-8.534,6.942-15.476,15.476-15.476h9.955V410.207z M474.897,392.144
	l-33.187,24.789V370.35v-26.851C454.01,360.783,468.365,381.303,474.897,392.144z M244.87,227.214h63.388
	c21.25,0,39.522,5.566,55.542,16.92l-85.093,18.114l-88.376-18.814C206.109,232.554,224.061,227.214,244.87,227.214z
	 M276.852,280.062c1.224,0.26,2.484,0.26,3.709,0l143.34-30.513v111.896h-9.955c-18.353,0-33.284,14.931-33.284,33.284
	c0,14.147,8.875,26.253,21.346,31.063H164.814c0.004-0.302,0.023-0.601,0.023-0.905v-55.043c0-4.917-3.987-8.904-8.904-8.904
	h-22.412V249.55L276.852,280.062z M54.327,424.889V378.75h92.702v46.139c0,25.441-20.792,46.139-46.347,46.139h-0.006
	C75.118,471.028,54.327,450.33,54.327,424.889z M278.706,162.84c38.639,0,70.075-31.329,70.075-69.839
	c0-38.509-31.436-69.838-70.075-69.838c-38.636,0-70.068,31.329-70.068,69.838C208.638,131.512,240.071,162.84,278.706,162.84z
	 M278.706,40.972c28.82,0,52.266,23.341,52.266,52.029c0,28.69-23.446,52.03-52.266,52.03c-28.817,0-52.26-23.341-52.26-52.03
	C226.446,64.313,249.89,40.972,278.706,40.972z M68.669,279.986c9.614-14.457,12.622-21.94,1.315-33.987
	c-3.355-3.573-3.158-9.171,0.44-12.504c3.595-3.332,9.229-3.138,12.585,0.436c21.377,22.773,9.791,41.866,0.52,55.808
	c-9.614,14.458-13.734,21.941-2.426,33.987c3.355,3.573,2.045,9.17-1.553,12.503c-1.715,1.589-3.896,2.376-6.071,2.376
	c-2.384,0-4.759-0.945-6.515-2.814C45.587,313.021,59.398,293.928,68.669,279.986z M190.316,306.577
	c1.084-4.766,5.856-7.757,10.647-6.678l34.656,7.78c4.796,1.077,7.807,5.815,6.723,10.579c-0.935,4.109-4.609,6.899-8.678,6.899
	c-0.65,0-1.31-0.071-1.971-0.219l-34.656-7.78C192.242,316.079,189.232,311.343,190.316,306.577z M190.316,350.81
	c1.084-4.767,5.856-7.758,10.647-6.678l34.656,7.78c4.796,1.077,7.807,5.815,6.723,10.579c-0.935,4.109-4.609,6.899-8.678,6.899
	c-0.65,0-1.31-0.071-1.971-0.219l-34.656-7.781C192.242,360.312,189.232,355.576,190.316,350.81z M315.081,362.575
	c-1.085-4.766,1.924-9.502,6.722-10.579l34.649-7.779c4.801-1.08,9.565,1.912,10.647,6.678c1.085,4.766-1.924,9.502-6.722,10.579
	l-34.649,7.779c-0.661,0.149-1.322,0.22-1.971,0.22C319.689,369.474,316.016,366.684,315.081,362.575z M315.081,315.447
	c-1.085-4.766,1.924-9.502,6.722-10.578l69.299-15.561c4.801-1.081,9.564,1.913,10.647,6.678c1.085,4.766-1.924,9.502-6.722,10.579
	l-69.299,15.561c-0.661,0.149-1.321,0.22-1.97,0.22C319.689,322.344,316.016,319.555,315.081,315.447z"/>
</svg>